<svg width="42" height="40" viewBox="0 0 42 40" fill="none" xmlns="http://www.w3.org/2000/svg">
<mask id="path-1-outside-1_89_164" maskUnits="userSpaceOnUse" x="0" y="0" width="20" height="29" fill="black">
<rect fill="white" width="20" height="29"/>
<path d="M3.2146 26.3325C2.33681 24.1198 1.92764 21.765 2.01047 19.4025C2.0933 17.04 2.66649 14.7161 3.69733 12.5635C4.72817 10.4108 6.19645 8.47163 8.01836 6.85658C9.84027 5.24153 11.9801 3.98226 14.3157 3.15067L16.3857 8.36855C14.7734 8.94262 13.2962 9.81192 12.0385 10.9268C10.7808 12.0417 9.76721 13.3804 9.0556 14.8664C8.34399 16.3524 7.94831 17.9566 7.89113 19.5875C7.83395 21.2184 8.1164 22.844 8.72236 24.3714L3.2146 26.3325Z"/>
</mask>
<path d="M3.2146 26.3325C2.33681 24.1198 1.92764 21.765 2.01047 19.4025C2.0933 17.04 2.66649 14.7161 3.69733 12.5635C4.72817 10.4108 6.19645 8.47163 8.01836 6.85658C9.84027 5.24153 11.9801 3.98226 14.3157 3.15067L16.3857 8.36855C14.7734 8.94262 13.2962 9.81192 12.0385 10.9268C10.7808 12.0417 9.76721 13.3804 9.0556 14.8664C8.34399 16.3524 7.94831 17.9566 7.89113 19.5875C7.83395 21.2184 8.1164 22.844 8.72236 24.3714L3.2146 26.3325Z" stroke="white" stroke-width="4" mask="url(#path-1-outside-1_89_164)"/>
<mask id="path-2-outside-2_89_164" maskUnits="userSpaceOnUse" x="21" y="0" width="21" height="27" fill="black">
<rect fill="white" x="21" width="21" height="27"/>
<path d="M25.2826 2.46322C27.7136 2.99602 30.0099 3.97721 32.0405 5.35076C34.0712 6.72432 35.7963 8.46333 37.1176 10.4685C38.4388 12.4737 39.3302 14.7058 39.7409 17.0374C40.1515 19.3689 40.0735 21.7543 39.511 24.0572L33.7786 22.8008C34.1668 21.211 34.2207 19.5644 33.9372 17.9548C33.6537 16.3453 33.0384 14.8044 32.1263 13.4202C31.2142 12.036 30.0233 10.8355 28.6215 9.88732C27.2197 8.93913 25.6345 8.26179 23.9564 7.89399L25.2826 2.46322Z"/>
</mask>
<path d="M25.2826 2.46322C27.7136 2.99602 30.0099 3.97721 32.0405 5.35076C34.0712 6.72432 35.7963 8.46333 37.1176 10.4685C38.4388 12.4737 39.3302 14.7058 39.7409 17.0374C40.1515 19.3689 40.0735 21.7543 39.511 24.0572L33.7786 22.8008C34.1668 21.211 34.2207 19.5644 33.9372 17.9548C33.6537 16.3453 33.0384 14.8044 32.1263 13.4202C31.2142 12.036 30.0233 10.8355 28.6215 9.88732C27.2197 8.93913 25.6345 8.26179 23.9564 7.89399L25.2826 2.46322Z" stroke="#FFFBFB" stroke-width="4" mask="url(#path-2-outside-2_89_164)"/>
<mask id="path-3-outside-3_89_164" maskUnits="userSpaceOnUse" x="5" y="25" width="34" height="15" fill="black">
<rect fill="white" x="5" y="25" width="34" height="15"/>
<path d="M35.442 31.6964C33.8206 33.4932 31.8416 34.9698 29.6179 36.0419C27.3942 37.1141 24.9694 37.7608 22.4819 37.9452C19.9944 38.1295 17.4929 37.8479 15.1203 37.1164C12.7476 36.3849 10.5503 35.2179 8.65376 33.6819L12.4771 29.4449C13.7864 30.5052 15.3032 31.3109 16.9411 31.8158C18.579 32.3208 20.3058 32.5152 22.023 32.3879C23.7402 32.2607 25.4141 31.8142 26.9491 31.0741C28.4842 30.3339 29.8504 29.3146 30.9696 28.0743L35.442 31.6964Z"/>
</mask>
<path d="M35.442 31.6964C33.8206 33.4932 31.8416 34.9698 29.6179 36.0419C27.3942 37.1141 24.9694 37.7608 22.4819 37.9452C19.9944 38.1295 17.4929 37.8479 15.1203 37.1164C12.7476 36.3849 10.5503 35.2179 8.65376 33.6819L12.4771 29.4449C13.7864 30.5052 15.3032 31.3109 16.9411 31.8158C18.579 32.3208 20.3058 32.5152 22.023 32.3879C23.7402 32.2607 25.4141 31.8142 26.9491 31.0741C28.4842 30.3339 29.8504 29.3146 30.9696 28.0743L35.442 31.6964Z" stroke="white" stroke-width="4" mask="url(#path-3-outside-3_89_164)"/>
</svg>
