<svg width="40" height="38" viewBox="0 0 40 38" fill="none" xmlns="http://www.w3.org/2000/svg">
<mask id="path-1-outside-1_89_151" maskUnits="userSpaceOnUse" x="0" y="0" width="17" height="27" fill="black">
<rect fill="white" width="17" height="27"/>
<path d="M2.2146 25.3325C1.33681 23.1198 0.927644 20.765 1.01047 18.4025C1.0933 16.04 1.66649 13.7161 2.69733 11.5635C3.72817 9.41082 5.19645 7.47163 7.01836 5.85658C8.84027 4.24153 10.9801 2.98226 13.3157 2.15067L15.3857 7.36855C13.7734 7.94262 12.2962 8.81192 11.0385 9.92682C9.7808 11.0417 8.76721 12.3804 8.0556 13.8664C7.34399 15.3524 6.94831 16.9566 6.89113 18.5875C6.83395 20.2184 7.1164 21.844 7.72236 23.3714L2.2146 25.3325Z"/>
</mask>
<path d="M2.2146 25.3325C1.33681 23.1198 0.927644 20.765 1.01047 18.4025C1.0933 16.04 1.66649 13.7161 2.69733 11.5635C3.72817 9.41082 5.19645 7.47163 7.01836 5.85658C8.84027 4.24153 10.9801 2.98226 13.3157 2.15067L15.3857 7.36855C13.7734 7.94262 12.2962 8.81192 11.0385 9.92682C9.7808 11.0417 8.76721 12.3804 8.0556 13.8664C7.34399 15.3524 6.94831 16.9566 6.89113 18.5875C6.83395 20.2184 7.1164 21.844 7.72236 23.3714L2.2146 25.3325Z" fill="#D9D9D9"/>
<path d="M2.2146 25.3325C1.33681 23.1198 0.927644 20.765 1.01047 18.4025C1.0933 16.04 1.66649 13.7161 2.69733 11.5635C3.72817 9.41082 5.19645 7.47163 7.01836 5.85658C8.84027 4.24153 10.9801 2.98226 13.3157 2.15067L15.3857 7.36855C13.7734 7.94262 12.2962 8.81192 11.0385 9.92682C9.7808 11.0417 8.76721 12.3804 8.0556 13.8664C7.34399 15.3524 6.94831 16.9566 6.89113 18.5875C6.83395 20.2184 7.1164 21.844 7.72236 23.3714L2.2146 25.3325Z" stroke="white" stroke-width="2" mask="url(#path-1-outside-1_89_151)"/>
<mask id="path-2-outside-2_89_151" maskUnits="userSpaceOnUse" x="21" y="0" width="19" height="25" fill="black">
<rect fill="white" x="21" width="19" height="25"/>
<path d="M24.2826 1.46322C26.7136 1.99602 29.0099 2.97721 31.0405 4.35076C33.0712 5.72432 34.7963 7.46333 36.1176 9.46853C37.4388 11.4737 38.3302 13.7058 38.7409 16.0374C39.1516 18.3689 39.0735 20.7543 38.511 23.0572L32.7786 21.8008C33.1668 20.211 33.2207 18.5644 32.9372 16.9548C32.6537 15.3453 32.0384 13.8044 31.1263 12.4202C30.2142 11.036 29.0233 9.83552 27.6215 8.88732C26.2197 7.93913 24.6345 7.26179 22.9564 6.89399L24.2826 1.46322Z"/>
</mask>
<path d="M24.2826 1.46322C26.7136 1.99602 29.0099 2.97721 31.0405 4.35076C33.0712 5.72432 34.7963 7.46333 36.1176 9.46853C37.4388 11.4737 38.3302 13.7058 38.7409 16.0374C39.1516 18.3689 39.0735 20.7543 38.511 23.0572L32.7786 21.8008C33.1668 20.211 33.2207 18.5644 32.9372 16.9548C32.6537 15.3453 32.0384 13.8044 31.1263 12.4202C30.2142 11.036 29.0233 9.83552 27.6215 8.88732C26.2197 7.93913 24.6345 7.26179 22.9564 6.89399L24.2826 1.46322Z" fill="#D9D9D9"/>
<path d="M24.2826 1.46322C26.7136 1.99602 29.0099 2.97721 31.0405 4.35076C33.0712 5.72432 34.7963 7.46333 36.1176 9.46853C37.4388 11.4737 38.3302 13.7058 38.7409 16.0374C39.1516 18.3689 39.0735 20.7543 38.511 23.0572L32.7786 21.8008C33.1668 20.211 33.2207 18.5644 32.9372 16.9548C32.6537 15.3453 32.0384 13.8044 31.1263 12.4202C30.2142 11.036 29.0233 9.83552 27.6215 8.88732C26.2197 7.93913 24.6345 7.26179 22.9564 6.89399L24.2826 1.46322Z" stroke="#FFFBFB" stroke-width="2" mask="url(#path-2-outside-2_89_151)"/>
<mask id="path-3-outside-3_89_151" maskUnits="userSpaceOnUse" x="6" y="25" width="30" height="13" fill="black">
<rect fill="white" x="6" y="25" width="30" height="13"/>
<path d="M34.442 30.6964C32.8206 32.4932 30.8416 33.9698 28.6179 35.0419C26.3942 36.1141 23.9694 36.7608 21.4819 36.9452C18.9944 37.1295 16.4929 36.8479 14.1203 36.1164C11.7476 35.3849 9.55031 34.2179 7.65376 32.6819L11.4771 28.4449C12.7864 29.5052 14.3032 30.3109 15.9411 30.8158C17.579 31.3208 19.3058 31.5152 21.023 31.3879C22.7402 31.2607 24.4141 30.8142 25.9491 30.0741C27.4842 29.3339 28.8504 28.3146 29.9696 27.0743L34.442 30.6964Z"/>
</mask>
<path d="M34.442 30.6964C32.8206 32.4932 30.8416 33.9698 28.6179 35.0419C26.3942 36.1141 23.9694 36.7608 21.4819 36.9452C18.9944 37.1295 16.4929 36.8479 14.1203 36.1164C11.7476 35.3849 9.55031 34.2179 7.65376 32.6819L11.4771 28.4449C12.7864 29.5052 14.3032 30.3109 15.9411 30.8158C17.579 31.3208 19.3058 31.5152 21.023 31.3879C22.7402 31.2607 24.4141 30.8142 25.9491 30.0741C27.4842 29.3339 28.8504 28.3146 29.9696 27.0743L34.442 30.6964Z" fill="#D9D9D9"/>
<path d="M34.442 30.6964C32.8206 32.4932 30.8416 33.9698 28.6179 35.0419C26.3942 36.1141 23.9694 36.7608 21.4819 36.9452C18.9944 37.1295 16.4929 36.8479 14.1203 36.1164C11.7476 35.3849 9.55031 34.2179 7.65376 32.6819L11.4771 28.4449C12.7864 29.5052 14.3032 30.3109 15.9411 30.8158C17.579 31.3208 19.3058 31.5152 21.023 31.3879C22.7402 31.2607 24.4141 30.8142 25.9491 30.0741C27.4842 29.3339 28.8504 28.3146 29.9696 27.0743L34.442 30.6964Z" stroke="white" stroke-width="2" mask="url(#path-3-outside-3_89_151)"/>
</svg>
