<svg width="42" height="41" viewBox="0 0 42 41" fill="none" xmlns="http://www.w3.org/2000/svg">
<path d="M21.4 39.5C31.8661 39.5 40.38 31.1081 40.38 20.72C40.38 10.3319 31.8661 1.94 21.4 1.94C10.934 1.94 2.42004 10.3319 2.42004 20.72C2.42004 31.1081 10.934 39.5 21.4 39.5Z" stroke="white" stroke-width="3"/>
<path d="M12.5 23C11.6292 23 10.8837 22.7063 10.2636 22.1188C9.64344 21.5313 9.33337 20.825 9.33337 20C9.33337 19.175 9.64344 18.4688 10.2636 17.8813C10.8837 17.2938 11.6292 17 12.5 17C13.3709 17 14.1164 17.2938 14.7365 17.8813C15.3566 18.4688 15.6667 19.175 15.6667 20C15.6667 20.825 15.3566 21.5313 14.7365 22.1188C14.1164 22.7063 13.3709 23 12.5 23ZM22 23C21.1292 23 20.3837 22.7063 19.7636 22.1188C19.1434 21.5313 18.8334 20.825 18.8334 20C18.8334 19.175 19.1434 18.4688 19.7636 17.8813C20.3837 17.2938 21.1292 17 22 17C22.8709 17 23.6164 17.2938 24.2365 17.8813C24.8566 18.4688 25.1667 19.175 25.1667 20C25.1667 20.825 24.8566 21.5313 24.2365 22.1188C23.6164 22.7063 22.8709 23 22 23ZM31.5 23C30.6292 23 29.8837 22.7063 29.2636 22.1188C28.6434 21.5313 28.3334 20.825 28.3334 20C28.3334 19.175 28.6434 18.4688 29.2636 17.8813C29.8837 17.2938 30.6292 17 31.5 17C32.3709 17 33.1164 17.2938 33.7365 17.8813C34.3566 18.4688 34.6667 19.175 34.6667 20C34.6667 20.825 34.3566 21.5313 33.7365 22.1188C33.1164 22.7063 32.3709 23 31.5 23Z" fill="#FEF7FF"/>
</svg>
