<svg width="38" height="36" viewBox="0 0 38 36" fill="none" xmlns="http://www.w3.org/2000/svg">
<ellipse cx="19" cy="18" rx="19" ry="18" fill="white"/>
<path d="M9.50004 20.125C8.62921 20.125 7.88372 19.8435 7.26358 19.2805C6.64344 18.7174 6.33337 18.0406 6.33337 17.25C6.33337 16.4594 6.64344 15.7826 7.26358 15.2195C7.88372 14.6565 8.62921 14.375 9.50004 14.375C10.3709 14.375 11.1164 14.6565 11.7365 15.2195C12.3566 15.7826 12.6667 16.4594 12.6667 17.25C12.6667 18.0406 12.3566 18.7174 11.7365 19.2805C11.1164 19.8435 10.3709 20.125 9.50004 20.125ZM19 20.125C18.1292 20.125 17.3837 19.8435 16.7636 19.2805C16.1434 18.7174 15.8334 18.0406 15.8334 17.25C15.8334 16.4594 16.1434 15.7826 16.7636 15.2195C17.3837 14.6565 18.1292 14.375 19 14.375C19.8709 14.375 20.6164 14.6565 21.2365 15.2195C21.8566 15.7826 22.1667 16.4594 22.1667 17.25C22.1667 18.0406 21.8566 18.7174 21.2365 19.2805C20.6164 19.8435 19.8709 20.125 19 20.125ZM28.5 20.125C27.6292 20.125 26.8837 19.8435 26.2636 19.2805C25.6434 18.7174 25.3334 18.0406 25.3334 17.25C25.3334 16.4594 25.6434 15.7826 26.2636 15.2195C26.8837 14.6565 27.6292 14.375 28.5 14.375C29.3709 14.375 30.1164 14.6565 30.7365 15.2195C31.3566 15.7826 31.6667 16.4594 31.6667 17.25C31.6667 18.0406 31.3566 18.7174 30.7365 19.2805C30.1164 19.8435 29.3709 20.125 28.5 20.125Z" fill="black"/>
</svg>
